<?xml version="1.0" encoding="UTF-8" standalone="no"?>
<svg
   width="128"
   height="128"
   version="1.1"
   id="svg6"
   sodipodi:docname="icon.svg"
   xml:space="preserve"
   inkscape:version="1.4.2 (ebf0e940d0, 2025-05-08)"
   xmlns:inkscape="http://www.inkscape.org/namespaces/inkscape"
   xmlns:sodipodi="http://sodipodi.sourceforge.net/DTD/sodipodi-0.dtd"
   xmlns:xlink="http://www.w3.org/1999/xlink"
   xmlns="http://www.w3.org/2000/svg"
   xmlns:svg="http://www.w3.org/2000/svg"><defs
     id="defs6" /><sodipodi:namedview
     id="namedview6"
     pagecolor="#ffffff"
     bordercolor="#000000"
     borderopacity="0.25"
     inkscape:showpageshadow="2"
     inkscape:pageopacity="0.0"
     inkscape:pagecheckerboard="0"
     inkscape:deskcolor="#d1d1d1"
     inkscape:zoom="2.56"
     inkscape:cx="40.820313"
     inkscape:cy="58.007813"
     inkscape:window-width="1024"
     inkscape:window-height="696"
     inkscape:window-x="0"
     inkscape:window-y="0"
     inkscape:window-maximized="1"
     inkscape:current-layer="g25" /><g
     enable-background="new"
     id="g26"
     transform="scale(0.00325121)"
     style="display:inline"><clipPath
       id="cp0"><path
         transform="scale(0.6666666)"
         d="M 0,0 H 59055 V 59055 H 0 Z"
         fill-rule="evenodd"
         id="path1-3" /></clipPath><g
       clip-path="url(#cp0)"
       id="g2"><path
         transform="scale(2.0833333)"
         d="M 0,0 H 18898 V 18898 H 0 Z"
         fill="#ffffff"
         id="path2-6" /></g><clipPath
       id="cp1"><path
         transform="scale(0.6666666)"
         d="M 0,0 H 59055 V 59055 H 0 Z"
         fill-rule="evenodd"
         id="path3-7" /></clipPath><g
       clip-path="url(#cp1)"
       id="g25"><path
         transform="scale(78.7401)"
         d="M 0,0 H 500 V 500 H 0 Z"
         fill="#1e2022"
         id="path4" /><path
         transform="scale(78.7401)"
         stroke-width="1"
         stroke-linecap="butt"
         stroke-miterlimit="4"
         stroke-linejoin="miter"
         fill="none"
         stroke="#000000"
         d="M 0,0 H 500 V 500 H 0 Z"
         id="path5" /><symbol
         id="font_2_15"><path
           transform="matrix(0.001,0,0,-0.001,-0.04200001,0)"
           d="m 258,0 h 84 v -586 h 216 v -70 H 42 v 70 h 216 z"
           id="path6" /></symbol><symbol
         id="font_2_20"><path
           transform="matrix(0.001,0,0,-0.001,-0.068,0.012)"
           d="m 318,-433 c 83,0 138,49 145,149 H 153 c 15,-96 85,-149 165,-149 z m 12,445 c 78,0 140,-26 188,-58 l -30,-54 c -44,28 -90,46 -148,46 -101,0 -179,-56 -189,-166 h 383 c 2,-13 4,-31 4,-50 0,-137 -82,-228 -222,-228 -130,0 -248,96 -248,254 0,162 116,256 262,256 z"
           id="path7"
           style="display:inline" /></symbol><symbol
         id="font_2_33"><path
           transform="matrix(0.001,0,0,-0.001,-0.064,0)"
           d="m 64,0 h 88 l 80,-112 c 20,-31 40,-59 60,-88 h 4 c 21,28 44,60 64,88 L 445,0 h 90 L 349,-245 522,-486 h -87 l -73,105 c -17,27 -37,57 -55,84 h -4 c -20,-27 -40,-56 -57,-82 L 169,-486 H 78 l 171,234 z"
           id="path8" /></symbol><symbol
         id="font_2_2f"><path
           transform="matrix(0.001,0,0,-0.001,-0.06900001,0.012)"
           d="m 394,12 c 61,0 108,-13 152,-29 l -18,-60 c -35,13 -71,22 -117,22 -94,0 -123,-46 -123,-133 v -231 h 239 v -67 H 288 v -156 h -68 l -11,156 -140,5 v 62 h 137 v 230 c 0,120 46,201 188,201 z"
           id="path9" /></symbol><use
         xlink:href="#font_2_15"
         transform="matrix(7517.101,-1488.4264,-1488.4264,-7517.101,11279.354,24027.165)"
         fill="#f0f5f9"
         id="use9" /><use
         xlink:href="#font_2_20"
         transform="matrix(7517.101,-1488.4264,-1488.4264,-7517.101,16002.913,23185.616)"
         fill="#f0f5f9"
         id="use10" /><use
         xlink:href="#font_2_33"
         transform="matrix(7517.101,-1488.4264,-1488.4264,-7517.101,20465.237,22208.309)"
         fill="#f0f5f9"
         id="use11" /><use
         xlink:href="#font_2_2f"
         transform="matrix(7517.101,-1488.4264,-1488.4264,-7517.101,25030.934,21398.022)"
         fill="#f0f5f9"
         id="use12" /><symbol
         id="font_2_a"><path
           transform="matrix(0.001,0,0,-0.001,-0.09500001,0)"
           d="M 95,0 H 505 V -71 H 342 v -515 h 163 v -70 H 95 v 70 H 258 V -71 H 95 Z"
           id="path12" /></symbol><symbol
         id="font_2_29"><path
           transform="matrix(0.001,0,0,-0.001,-0.093,0)"
           d="m 93,0 h 82 v -339 c 57,-59 96,-88 154,-88 80,0 112,44 112,136 V 0 h 82 v -302 c 0,-128 -53,-196 -168,-196 -76,0 -132,41 -183,95 h -4 l -7,-83 H 93 Z"
           id="path13" /></symbol><symbol
         id="font_2_2e"><path
           transform="matrix(0.001,0,0,-0.001,-0.071,0.012)"
           d="m 310,12 c 139,0 216,-66 216,-145 0,-74 -39,-115 -201,-150 -99,-21 -141,-39 -141,-81 0,-37 29,-70 112,-70 62,0 118,20 163,51 l 40,-53 c -48,-33 -122,-62 -196,-62 -133,0 -202,60 -202,138 0,73 64,116 190,142 132,27 152,53 152,90 0,41 -41,76 -123,76 -90,0 -155,-26 -211,-66 l -38,54 c 59,41 144,76 239,76 z"
           id="path14" /></symbol><symbol
         id="font_2_2d"><path
           transform="matrix(0.001,0,0,-0.001,-0.14600002,0)"
           d="m 146,0 h 82 v -285 c 58,-101 127,-139 200,-139 38,0 56,5 90,17 l 19,-71 c -30,-15 -60,-20 -96,-20 -90,0 -166,49 -217,127 h -3 l -7,-115 h -68 z"
           id="path15" /></symbol><use
         xlink:href="#font_2_a"
         transform="matrix(7517.101,-1488.4264,-1488.4264,-7517.101,6442.601,11329.361)"
         fill="#f0f5f9"
         id="use15" /><use
         xlink:href="#font_2_29"
         transform="matrix(7517.101,-1488.4264,-1488.4264,-7517.101,10937.821,10439.283)"
         fill="#f0f5f9"
         id="use16" /><use
         xlink:href="#font_2_2e"
         transform="matrix(7517.101,-1488.4264,-1488.4264,-7517.101,15300.56,9669.18)"
         fill="#f0f5f9"
         id="use17" /><use
         xlink:href="#font_2_20"
         transform="matrix(7517.101,-1488.4264,-1488.4264,-7517.101,19788.258,8780.594)"
         fill="#f0f5f9"
         id="use18" /><use
         xlink:href="#font_2_2d"
         transform="matrix(7517.101,-1488.4264,-1488.4264,-7517.101,24866.985,7681.237)"
         fill="#f0f5f9"
         id="use19" /><use
         xlink:href="#font_2_2f"
         transform="matrix(7517.101,-1488.4264,-1488.4264,-7517.101,28816.284,6992.996)"
         fill="#f0f5f9"
         id="use20" /><symbol
         id="font_2_9"><path
           transform="matrix(0.001,0,0,-0.001,-0.079,0)"
           d="m 79,0 h 84 V -309 H 437 V 0 h 84 v -656 h -84 v 275 H 163 V -656 H 79 Z"
           id="path20" /></symbol><use
         xlink:href="#font_2_9"
         transform="matrix(7517.101,-1488.4264,-1488.4264,-7517.101,12692.255,37756.07)"
         fill="#f0f5f9"
         id="use21" /><use
         xlink:href="#font_2_20"
         transform="matrix(7517.101,-1488.4264,-1488.4264,-7517.101,17137.682,36969.595)"
         fill="#f0f5f9"
         id="use22" /><use
         xlink:href="#font_2_2d"
         transform="matrix(7517.101,-1488.4264,-1488.4264,-7517.101,22216.409,35870.24)"
         fill="#f0f5f9"
         id="use23" /><use
         xlink:href="#font_2_20"
         transform="matrix(7517.101,-1488.4264,-1488.4264,-7517.101,26158.186,35183.49)"
         fill="#f0f5f9"
         id="use24" /><path
         transform="scale(78.7401)"
         d="M 0,200 C -0.004,230.839 0,0 0,0 h 500 v 100 z"
         fill-opacity="0.9608"
         id="path24" /><path
         transform="scale(78.7401)"
         d="M -0.264,400.384 0,500 H 500 V 300 L 0,400 Z"
         fill-opacity="0.9608"
         id="path25" /></g></g></svg>
